<svg width="540" height="1024" viewBox="0 0 540 1024" fill="none" xmlns="http://www.w3.org/2000/svg">
<g clip-path="url(#clip0_248_117)">
<mask id="mask0_248_117" style="mask-type:luminance" maskUnits="userSpaceOnUse" x="353" y="584" width="187" height="189">
<path d="M433.245 584.626L539.805 622.256L460.251 772.594L353.691 734.963L433.245 584.626Z" fill="white"/>
</mask>
<g mask="url(#mask0_248_117)">
<path d="M537.808 627.564C484.494 631.793 404.773 670.258 394.236 713.121L362.299 730.315L368.483 732.499L396.291 717.506C428.186 730.195 439.488 729.101 461.794 712.993C487.659 691.051 517.856 657.608 537.808 627.564ZM506.826 648.701C526.484 637.599 508.167 646.168 508.167 646.168C491.006 657.149 474.232 671.103 460.517 680.168C442.699 693.924 436.451 695.228 411.387 709.558C395.22 717.128 407.999 711.139 416.801 705.455C427.168 698.76 437.085 694.7 450.409 686.374C470.27 674.886 497.95 653.714 506.826 648.701Z" fill="#56614D" fill-opacity="0.74"/>
</g>
<mask id="mask1_248_117" style="mask-type:luminance" maskUnits="userSpaceOnUse" x="299" y="680" width="171" height="180">
<path d="M401.178 680.452L469.139 770.477L367.681 859.511L299.721 769.486L401.178 680.452Z" fill="white"/>
</mask>
<g mask="url(#mask1_248_117)">
<path d="M466.154 774.055C425.599 749.203 355.82 740.187 335.857 772.075L307.395 770.026L311.34 775.251L336.128 777.016C356.064 805.21 364.717 810.305 385.762 808.147C411.091 802.788 442.887 789.677 466.154 774.055ZM437.277 775.97C454.943 776.777 438.987 774.47 438.987 774.47C423.199 774.894 406.85 778.128 394.15 778.721C377.087 781.222 372.105 779.018 349.53 778.141C335.445 776.111 346.58 777.712 354.692 777.449C364.248 777.139 372.722 778.895 384.924 778.741C402.85 779.319 429.3 775.606 437.277 775.97Z" fill="#56614D" fill-opacity="0.74"/>
</g>
<mask id="mask2_248_117" style="mask-type:luminance" maskUnits="userSpaceOnUse" x="278" y="574" width="171" height="181">
<path d="M448.256 618.952L374.945 574.5L278.612 709.805L351.923 754.257L448.256 618.952Z" fill="white"/>
</mask>
<g mask="url(#mask2_248_117)">
<path d="M371.229 578.776C388.387 614.211 386.834 685.593 354.644 716.649L352.511 746.267L348.256 743.687L350.132 717.886C326.982 705.397 323.512 697.772 328.472 674.739C336.987 646.165 353.554 608.326 371.229 578.776ZM365.385 610.058C367.138 591.532 367.009 607.778 367.009 607.778C364.388 624.69 359.099 643.063 356.759 656.744C352.044 675.652 353.371 680.267 350.989 703.989C350.869 718.333 350.968 706.992 352.356 698.289C353.992 688.037 353.571 679.572 355.437 666.556C357.437 647.682 364.594 618.424 365.385 610.058Z" fill="#56614D" fill-opacity="0.74"/>
</g>
<mask id="mask3_248_117" style="mask-type:luminance" maskUnits="userSpaceOnUse" x="193" y="606" width="199" height="206">
<path d="M391.495 661.638L299.945 606.127L193.436 755.724L284.986 811.236L391.495 661.638Z" fill="white"/>
</mask>
<g mask="url(#mask3_248_117)">
<path d="M295.769 610.813C318.978 652.561 322.186 734.471 285.589 768.197L285.125 802.092L279.812 798.87L280.237 769.344C251.438 753.592 246.711 744.623 251.052 718.464C259.283 686.154 276.563 643.689 295.769 610.813ZM290.951 646.396C291.745 625.219 292.746 643.875 292.746 643.875C290.79 663.144 285.72 683.931 283.873 699.506C279.535 720.941 281.464 726.323 280.281 753.431C281.157 769.902 280.469 756.879 281.524 746.965C282.765 735.287 281.656 725.537 282.979 710.697C284.046 689.137 290.592 655.959 290.951 646.396Z" fill="#56614D" fill-opacity="0.74"/>
</g>
<mask id="mask4_248_117" style="mask-type:luminance" maskUnits="userSpaceOnUse" x="148" y="687" width="163" height="168">
<path d="M310.432 732.478L235.527 687.06L148.383 809.458L223.288 854.876L310.432 732.478Z" fill="white"/>
</mask>
<g mask="url(#mask4_248_117)">
<path d="M232.108 690.895C251.098 725.052 253.723 792.069 223.779 819.663L223.4 847.396L219.053 844.76L219.401 820.602C195.838 807.714 191.97 800.376 195.522 778.973C202.257 752.537 216.395 717.793 232.108 690.895ZM228.166 720.008C228.816 702.681 229.635 717.945 229.635 717.945C228.035 733.711 223.888 750.718 222.377 763.462C218.827 780.999 220.404 785.403 219.437 807.582C220.154 821.058 219.591 810.404 220.453 802.292C221.469 792.737 220.562 784.76 221.644 772.618C222.517 754.978 227.873 727.832 228.166 720.008Z" fill="#56614D" fill-opacity="0.74"/>
</g>
<mask id="mask5_248_117" style="mask-type:luminance" maskUnits="userSpaceOnUse" x="46" y="694" width="204" height="203">
<path d="M249.024 756.516L146.785 694.524L46.959 834.734L149.197 896.727L249.024 756.516Z" fill="white"/>
</mask>
<g mask="url(#mask5_248_117)">
<path d="M142.765 698.853C171.154 742.005 181.875 823.452 145.996 854.105L148.529 887.673L142.595 884.075L140.411 854.835C108.403 837.03 102.579 827.779 104.857 802.176C110.72 770.77 125.291 729.985 142.765 698.853ZM140.821 733.762C139.775 712.828 142.504 731.399 142.504 731.399C142.145 750.354 138.615 770.576 138.042 785.877C135.346 806.796 137.875 812.279 139.037 839.063C141.439 855.458 139.546 842.496 139.781 832.747C140.058 821.264 138.009 811.514 138.09 796.903C137.3 775.609 141.294 743.215 140.821 733.762Z" fill="#56614D" fill-opacity="0.74"/>
</g>
<mask id="mask6_248_117" style="mask-type:luminance" maskUnits="userSpaceOnUse" x="240" y="737" width="157" height="170">
<path d="M341.98 737.822L396.951 827.872L295.759 906.121L240.788 816.071L341.98 737.822Z" fill="white"/>
</mask>
<g mask="url(#mask6_248_117)">
<path d="M393.893 831.087C358.617 804.831 295.034 791.775 273.894 820.851L247.82 817.076L251.01 822.302L273.72 825.571C289.693 853.687 297.238 859.092 316.831 858.387C340.65 854.908 371.096 844.466 393.893 831.087ZM367.096 831.059C383.32 832.959 368.802 829.74 368.802 829.74C354.204 829.132 338.85 831.163 327.086 830.913C311.135 832.201 306.729 829.783 285.984 827.501C273.168 824.666 283.3 826.903 290.805 827.173C299.644 827.49 307.309 829.706 318.576 830.34C335.059 832.04 359.771 830.201 367.096 831.059Z" fill="#56614D" fill-opacity="0.74"/>
</g>
<mask id="mask7_248_117" style="mask-type:luminance" maskUnits="userSpaceOnUse" x="147" y="766" width="208" height="228">
<path d="M276.502 766.15L354.471 893.875L225.458 993.637L147.489 865.912L276.502 766.15Z" fill="white"/>
</mask>
<g mask="url(#mask7_248_117)">
<path d="M350.621 898.056C302.463 859.366 217.698 836.658 191.503 874.967L156.836 867.822L161.361 875.234L191.554 881.432C214.326 921.221 224.613 929.207 250.452 929.715C281.708 926.736 321.305 914.7 350.621 898.056ZM315.224 895.999C336.767 899.829 317.398 894.318 317.398 894.318C298.079 892.383 277.918 894.014 262.364 892.784C241.371 893.349 235.407 889.699 207.869 885.005C190.771 880.148 204.288 883.982 214.217 884.918C225.912 886.019 236.169 889.637 251.089 891.357C272.962 894.932 305.496 894.269 315.224 895.999Z" fill="#56614D" fill-opacity="0.74"/>
</g>
<mask id="mask8_248_117" style="mask-type:luminance" maskUnits="userSpaceOnUse" x="90" y="814" width="183" height="232">
<path d="M226.149 814.398L272.191 966.345L136.588 1045.66L90.5462 893.715L226.149 814.398Z" fill="white"/>
</mask>
<g mask="url(#mask8_248_117)">
<path d="M267.917 969.993C231.801 918.879 159.562 877.168 128.58 912.466L98.627 897.684L101.299 906.503L127.392 919.35C140.364 966.369 148.132 976.992 171.378 982.888C200.184 986.2 238.254 981.61 267.917 969.993ZM236.332 960.469C255.062 969.006 238.618 959.132 238.618 959.132C221.535 953.071 203.01 950.626 189.193 946.095C170.12 942.345 165.429 937.228 141.448 926.53C126.929 917.822 138.408 924.7 147.199 927.752C157.554 931.348 166.129 937.319 179.28 942.241C198.357 950.575 227.875 956.614 236.332 960.469Z" fill="#56614D" fill-opacity="0.74"/>
</g>
<mask id="mask9_248_117" style="mask-type:luminance" maskUnits="userSpaceOnUse" x="-29" y="730" width="200" height="196">
<path d="M170.52 810.985L63.6543 730.569L-28.6382 844.652L78.2272 925.068L170.52 810.985Z" fill="white"/>
</mask>
<g mask="url(#mask9_248_117)">
<path d="M59.8575 733.899C91.0895 781.116 106.795 861.456 72.4375 883.519L77.0085 916.245L70.8065 911.578L66.8475 883.076C33.4875 859.438 27.0565 849.369 27.8175 825.27C31.8465 796.339 44.0985 760.19 59.8575 733.899ZM59.9935 766.996C57.6805 746.696 61.5485 765.073 61.5485 765.073C62.3245 783.185 59.9765 801.865 60.3185 816.428C58.8535 835.948 61.7335 841.725 64.5155 867.662C67.9225 883.885 65.2335 871.06 64.8855 861.755C64.4765 850.794 61.8235 841.02 61.0285 827.017C58.9525 806.425 61.0375 776.162 59.9935 766.996Z" fill="#56614D" fill-opacity="0.74"/>
</g>
<mask id="mask10_248_117" style="mask-type:luminance" maskUnits="userSpaceOnUse" x="39" y="852" width="131" height="212">
<path d="M160.818 852.058L169.615 1009.55L48.0945 1063.51L39.2971 906.022L160.818 852.058Z" fill="white"/>
</mask>
<g mask="url(#mask10_248_117)">
<path d="M165.576 1012.38C146.321 955.747 96.8219 901.968 65.9409 931.179L44.9609 911.35L45.4709 920.49L63.7529 937.735C65.4679 986.245 69.6769 998.06 86.9709 1007.97C109.126 1016.32 140.034 1018.55 165.576 1012.38ZM142.353 997.427C155.6 1009.13 144.401 996.517 144.401 996.517C132.005 987.537 117.815 981.856 107.722 974.957C93.3349 967.896 90.5569 962.038 73.5539 947.279C63.6639 936.152 71.4849 944.943 77.8759 949.498C85.4039 954.865 91.0939 962.251 100.59 969.415C114.148 980.983 136.371 992.141 142.353 997.427Z" fill="#56614D" fill-opacity="0.74"/>
</g>
<path d="M-0.222656 921.303C124.124 908.899 205.041 863.547 370.119 726.001" stroke="#56614D" stroke-opacity="0.99"/>
<mask id="mask11_248_117" style="mask-type:luminance" maskUnits="userSpaceOnUse" x="95" y="308" width="129" height="178">
<path d="M208.744 478.239L95.9492 485.2L110.492 315.734L223.286 308.773L208.744 478.239Z" fill="white"/>
</mask>
<g mask="url(#mask11_248_117)">
<path d="M95.7168 479.533C143.148 454.824 201.523 388.286 194.489 344.711L217.178 316.412L210.632 316.816L190.885 341.476C156.567 342.248 146.59 347.667 132.343 371.206C117.098 401.505 102.355 444.083 95.7168 479.533ZM115.986 447.977C102.224 465.873 115.741 450.833 115.741 450.833C127.253 434.024 137.247 414.628 146.334 400.927C157.368 381.306 162.61 377.666 180.091 354.688C192.019 341.406 182.592 351.909 176.708 360.578C169.778 370.79 162.233 378.4 153.218 391.267C139.418 409.597 122.201 439.896 115.986 447.977Z" fill="#56614D" fill-opacity="0.74"/>
</g>
<mask id="mask12_248_117" style="mask-type:luminance" maskUnits="userSpaceOnUse" x="103" y="199" width="157" height="179">
<path d="M200.848 377.5L103.133 321.154L161.776 199.574L259.491 255.92L200.848 377.5Z" fill="white"/>
</mask>
<g mask="url(#mask12_248_117)">
<path d="M104.482 316.694C151.522 323.74 219.283 304.796 225.211 267.644L252.214 258.419L246.543 255.149L223.033 263.202C193.671 245.03 183.715 243.717 165.184 253.92C143.957 268.743 119.804 293.228 104.482 316.694ZM130.32 303.657C113.741 309.811 129.331 305.706 129.331 305.706C143.701 299.151 157.489 289.79 168.95 284.286C183.682 275.321 189.13 275.405 210.255 267.398C224.015 263.768 213.139 266.642 205.773 270.052C197.096 274.068 188.609 275.759 177.436 280.666C160.707 287.132 137.806 300.878 130.32 303.657Z" fill="#56614D" fill-opacity="0.74"/>
</g>
<mask id="mask13_248_117" style="mask-type:luminance" maskUnits="userSpaceOnUse" x="181" y="290" width="122" height="175">
<path d="M181.519 452.5L266.367 464.801L302.227 302.624L217.379 290.323L181.519 452.5Z" fill="white"/>
</mask>
<g mask="url(#mask13_248_117)">
<path d="M268.119 459.413C238.487 433.49 212.048 367.167 229.557 326.007L219.957 297.907L224.881 298.621L233.228 323.107C259.417 325.567 265.589 331.231 270.014 354.372C273.332 384.003 272.854 425.308 268.119 459.413ZM261.285 428.332C266.905 446.073 260.681 431.065 260.681 431.065C256.491 414.473 254.186 395.492 250.999 381.983C247.957 362.736 244.934 359.005 237.865 336.236C232.375 322.983 236.712 333.463 238.832 342.018C241.329 352.094 245.021 359.723 248.385 372.435C253.913 390.591 258.747 420.321 261.285 428.332Z" fill="#56614D" fill-opacity="0.74"/>
</g>
<mask id="mask14_248_117" style="mask-type:luminance" maskUnits="userSpaceOnUse" x="217" y="211" width="146" height="196">
<path d="M217.107 391.041L323.064 406.402L362.712 227.093L256.755 211.732L217.107 391.041Z" fill="white"/>
</mask>
<g mask="url(#mask14_248_117)">
<path d="M325.08 400.456C287.413 371.084 252.479 296.928 273.004 251.59L260.197 220.204L266.346 221.095L277.483 248.444C310.146 251.701 318 258.113 324.217 283.891C329.254 316.85 329.925 362.692 325.08 400.456ZM315.623 365.817C323.16 385.623 314.955 368.839 314.955 368.839C309.232 350.335 305.782 329.219 301.402 314.159C297.027 292.732 293.151 288.529 283.656 263.111C276.418 248.29 282.136 260.01 285.036 269.549C288.452 280.785 293.28 289.328 297.856 303.507C305.292 323.773 312.219 356.873 315.623 365.817Z" fill="#56614D" fill-opacity="0.74"/>
</g>
<mask id="mask15_248_117" style="mask-type:luminance" maskUnits="userSpaceOnUse" x="264" y="147" width="120" height="160">
<path d="M264.079 294.172L350.771 306.74L383.211 160.033L296.518 147.464L264.079 294.172Z" fill="white"/>
</mask>
<g mask="url(#mask15_248_117)">
<path d="M352.422 301.875C321.603 277.843 293.021 217.17 309.814 180.075L299.336 154.396L304.367 155.125L313.479 177.501C340.203 180.166 346.629 185.413 351.716 206.503C355.837 233.47 356.386 270.977 352.422 301.875ZM344.684 273.534C350.851 289.739 344.137 276.006 344.137 276.006C339.455 260.867 336.633 243.59 333.049 231.268C329.469 213.737 326.298 210.298 318.529 189.502C312.608 177.375 317.286 186.964 319.659 194.769C322.454 203.962 326.404 210.952 330.148 222.553C336.231 239.134 341.899 266.216 344.684 273.534Z" fill="#56614D" fill-opacity="0.74"/>
</g>
<mask id="mask16_248_117" style="mask-type:luminance" maskUnits="userSpaceOnUse" x="311" y="80" width="156" height="186">
<path d="M311.229 248.065L429.557 265.22L466.717 97.1623L348.389 80.0076L311.229 248.065Z" fill="white"/>
</mask>
<g mask="url(#mask16_248_117)">
<path d="M431.567 259.666C388.583 231.023 346.913 160.226 367.977 117.997L352.539 88.0828L359.406 89.0784L372.833 115.145C409.252 119.039 418.226 125.282 426.125 149.743C432.99 180.945 435.499 224.183 431.567 259.666ZM419.727 226.768C428.863 245.632 419.1 229.6 419.1 229.6C412.03 212.01 407.385 192.015 401.938 177.705C396.252 157.393 391.784 153.333 380.256 129.128C371.644 114.972 378.448 126.166 382.037 135.233C386.265 145.913 391.959 154.089 397.588 167.573C406.63 186.867 415.601 218.25 419.727 226.768Z" fill="#56614D" fill-opacity="0.74"/>
</g>
<mask id="mask17_248_117" style="mask-type:luminance" maskUnits="userSpaceOnUse" x="147" y="128" width="149" height="174">
<path d="M232.95 301.571L147.184 240.13L209.793 128.583L295.56 190.023L232.95 301.571Z" fill="white"/>
</mask>
<g mask="url(#mask17_248_117)">
<path d="M148.744 235.976C191.471 246.375 255.105 233.569 263.215 198.547L288.694 191.843L283.716 188.277L261.532 194.134C235.849 174.487 226.793 172.456 209.031 180.755C188.46 193.257 164.507 214.758 148.744 235.976ZM173.424 225.539C157.747 230.124 172.369 227.419 172.369 227.419C186.046 222.28 199.388 214.415 210.316 210.052C224.498 202.639 229.499 203.144 249.488 197.145C262.394 194.752 252.192 196.648 245.178 199.33C236.916 202.489 228.995 203.442 218.375 207.257C202.536 212.127 180.504 223.469 173.424 225.539Z" fill="#56614D" fill-opacity="0.74"/>
</g>
<mask id="mask18_248_117" style="mask-type:luminance" maskUnits="userSpaceOnUse" x="160" y="20" width="202" height="230">
<path d="M282.17 249.926L160.521 162.78L240.344 20.5652L361.993 107.711L282.17 249.926Z" fill="white"/>
</mask>
<g mask="url(#mask18_248_117)">
<path d="M162.432 157.427C221.873 174.245 308.777 162.055 317.936 116.558L352.641 109.602L345.581 104.544L315.364 110.627C278.865 82.8873 266.276 79.551 242.289 89.1717C214.677 104.118 182.923 130.659 162.432 157.427ZM195.823 145.501C174.494 150.386 194.478 147.898 194.478 147.898C213.018 142.136 230.942 132.763 245.742 127.823C264.849 119.106 271.764 120.137 298.949 113.707C316.587 111.503 302.646 113.251 293.14 116.266C281.942 119.818 271.087 120.492 256.68 124.734C235.146 129.983 205.454 143.295 195.823 145.501Z" fill="#56614D" fill-opacity="0.74"/>
</g>
<mask id="mask19_248_117" style="mask-type:luminance" maskUnits="userSpaceOnUse" x="207" y="-63" width="197" height="249">
<path d="M309.688 185.848L207.975 63.937L301.847 -62.0293L403.56 59.8816L309.688 185.848Z" fill="white"/>
</mask>
<g mask="url(#mask19_248_117)">
<path d="M210.486 58.9093C263.692 91.8659 346.484 102.061 361.225 57.4683L394.571 59.3824L388.668 52.3073L359.631 50.6671C329.33 12.4444 318.031 5.69762 294.328 9.34568C266.516 17.5437 233.259 36.6327 210.486 58.9093ZM243.283 55.3458C222.706 54.7988 241.701 57.4688 241.701 57.4688C259.794 56.379 277.803 51.3971 292.293 50.1743C311.316 46.18 317.632 49.0589 343.887 49.5449C360.653 51.8926 347.4 50.0429 338.115 50.6651C327.178 51.3979 316.952 49.2482 302.924 49.8517C282.107 49.6278 252.574 55.5928 243.283 55.3458Z" fill="#56614D" fill-opacity="0.74"/>
</g>
<mask id="mask20_248_117" style="mask-type:luminance" maskUnits="userSpaceOnUse" x="362" y="26" width="171" height="174">
<path d="M362.235 167.271L492.016 199.58L532.441 58.5172L402.66 26.208L362.235 167.271Z" fill="white"/>
</mask>
<g mask="url(#mask20_248_117)">
<path d="M494.21 195.033C447.022 163.758 401.196 95.9255 424.212 62.1997L407.227 33.8558L414.759 35.7309L429.531 60.4246C469.473 69.1612 479.324 75.9202 488.033 98.4036C495.619 126.612 498.453 164.675 494.21 195.033ZM481.163 164.616C491.218 182.402 480.482 166.993 480.482 166.993C472.696 150.621 467.564 132.508 461.564 119.234C455.291 100.692 450.384 96.4968 437.697 73.7045C428.226 60.0999 435.708 70.857 439.662 79.2879C444.319 89.2189 450.577 97.1816 456.776 109.762C466.727 127.91 476.623 156.585 481.163 164.616Z" fill="#56614D" fill-opacity="0.74"/>
</g>
<mask id="mask21_248_117" style="mask-type:luminance" maskUnits="userSpaceOnUse" x="285" y="-114" width="161" height="240">
<path d="M355.133 125.67L285.543 -15.8872L376.349 -113.014L445.939 28.5433L355.133 125.67Z" fill="white"/>
</mask>
<g mask="url(#mask21_248_117)">
<path d="M288.158 -20.0687C327.995 24.5486 394.563 54.7334 411.588 15.7833L438.645 25.8472L434.606 17.6318L411.043 8.89378C390.524 -35.0962 382.036 -44.3306 362.246 -46.7004C338.588 -45.7393 309.264 -35.721 288.158 -20.0687ZM315.375 -15.3724C298.609 -20.9767 313.845 -13.7354 313.845 -13.7354C328.763 -10.3077 344.045 -10.6182 356.031 -8.2076C372.033 -7.32428 376.877 -3.01475 398.293 3.9337C411.742 10.3168 401.11 5.27691 393.448 3.57796C384.422 1.57674 376.299 -3.00197 364.761 -5.89005C347.762 -11.2453 322.946 -12.8418 315.375 -15.3724Z" fill="#56614D" fill-opacity="0.74"/>
</g>
<path d="M476.353 -0.955444C366.718 59.013 309.931 132.358 211.658 323.44" stroke="#56614D" stroke-opacity="0.99"/>
</g>
<defs>
<clipPath id="clip0_248_117">
<rect width="540" height="1024" fill="white"/>
</clipPath>
</defs>
</svg>
