<svg width="80" height="116" viewBox="0 0 80 116" fill="none" xmlns="http://www.w3.org/2000/svg">
<g clip-path="url(#clip0_163_94)">
<path d="M71.8379 12.1157C64.1008 16.8295 55.5178 28.4142 57.8938 35.2771L54.6212 40.1699L55.7672 40.0006L58.6147 35.7372C64.6576 35.065 66.2794 34.0379 68.1842 30.042C70.0897 24.9481 71.587 17.8965 71.8379 12.1157ZM69.0774 17.4912C71.0435 14.4064 69.0465 17.03 69.0465 17.03C67.4499 19.905 66.1885 23.1696 64.9394 25.5081C63.5004 28.8255 62.6688 29.4919 60.1781 33.4498C58.4162 35.7666 59.8085 33.9346 60.6225 32.4527C61.5814 30.7073 62.7164 29.3685 63.9746 27.1645C65.9359 24.0096 68.1897 18.8841 69.0774 17.4912Z" fill="#56614D" fill-opacity="0.74"/>
</g>
<g clip-path="url(#clip1_163_94)">
<path d="M74.5254 38.3226C66.0316 37.947 54.5526 42.063 54.4716 48.105L49.9409 50.0136L51.0278 50.4464L54.972 48.7814C60.632 51.2207 62.4251 51.2717 65.4337 49.342C68.7983 46.6297 72.4288 42.324 74.5254 38.3226ZM70.2997 40.8228C73.0686 39.5725 70.421 40.4789 70.421 40.4789C68.0527 41.758 65.8603 43.477 63.9785 44.5414C61.6089 46.2121 60.6443 46.2857 57.1203 47.9052C54.7837 48.7064 56.6305 48.0724 57.8432 47.4088C59.2716 46.6272 60.7271 46.2206 62.5735 45.2566C65.3609 43.954 69.0494 41.3873 70.2997 40.8228Z" fill="#56614D" fill-opacity="0.74"/>
</g>
<g clip-path="url(#clip2_163_94)">
<path d="M41.9023 18.0935C47.8117 21.7693 54.2076 31.9633 52.1846 38.832L54.6114 43.1766L53.7229 43.1411L51.6115 39.3549C46.9207 39.38 45.683 38.572 44.2992 34.9384C42.9425 30.2482 41.9528 23.6287 41.9023 18.0935ZM43.9181 22.9595C42.4638 20.2096 43.9538 22.5123 43.9538 22.5123C45.1255 25.1015 46.0263 28.1029 46.9407 30.2144C47.9786 33.2468 48.6097 33.7957 50.4509 37.3275C51.7654 39.3611 50.7267 37.7529 50.1297 36.4174C49.4264 34.8443 48.5758 33.6822 47.6509 31.7011C46.202 28.8831 44.5747 24.2013 43.9181 22.9595Z" fill="#56614D" fill-opacity="0.74"/>
</g>
<g clip-path="url(#clip3_163_94)">
<path d="M33.373 28.4421C40.7917 32.5416 48.8921 43.8535 46.4449 51.4394L49.5238 56.2588L48.4142 56.2144L45.7354 52.0146C39.8801 52.0155 38.3257 51.1147 36.557 47.0877C34.8099 41.8922 33.4991 34.5648 33.373 28.4421ZM35.9447 33.8359C34.098 30.7859 35.9842 33.3414 35.9842 33.3414C37.4764 36.2119 38.635 39.5369 39.8007 41.8776C41.1309 45.2377 41.9249 45.8484 44.2635 49.7654C45.9276 52.0222 44.6126 50.2375 43.8522 48.7569C42.9564 47.0129 41.8812 45.7226 40.7041 43.5261C38.8634 40.4009 36.7786 35.2131 35.9447 33.8359Z" fill="#56614D" fill-opacity="0.74"/>
</g>
<g clip-path="url(#clip4_163_94)">
<path d="M31.1055 44.6598C37.1753 48.014 43.8029 57.2692 41.8006 63.4758L44.3198 67.4189L43.4119 67.3826L41.2201 63.9464C36.4294 63.9472 35.1577 63.2102 33.7105 59.9153C32.2811 55.6645 31.2086 49.6693 31.1055 44.6598ZM33.2096 49.0729C31.6986 46.5775 33.2419 48.6684 33.2419 48.6684C34.4628 51.0169 35.4107 53.7374 36.3644 55.6526C37.4528 58.4017 38.1025 58.9014 40.0158 62.1062C41.3774 63.9527 40.3015 62.4925 39.6793 61.2811C38.9464 59.8541 38.0667 58.7985 37.1036 57.0013C35.5976 54.4443 33.8919 50.1997 33.2096 49.0729Z" fill="#56614D" fill-opacity="0.74"/>
</g>
<g clip-path="url(#clip5_163_94)">
<path d="M18.2207 52.6823C26.5598 56.5799 35.7628 67.2465 33.1397 74.3431L36.6451 78.8849L35.406 78.8353L32.3559 74.8775C25.8203 74.8365 24.0726 73.9806 22.0408 70.1913C20.0166 65.3064 18.4489 58.4251 18.2207 52.6823ZM21.1682 57.759C19.0634 54.8855 21.2052 57.2956 21.2052 57.2956C22.9117 59.9983 24.2525 63.1249 25.587 65.3284C27.1197 68.489 28.0147 69.0674 30.6809 72.7577C32.5706 74.8861 31.0774 73.2029 30.2074 71.8089C29.1826 70.1669 27.9641 68.9492 26.6189 66.8808C24.5197 63.9368 22.1186 59.0566 21.1682 57.759Z" fill="#56614D" fill-opacity="0.74"/>
</g>
<g clip-path="url(#clip6_163_94)">
<path d="M68.8047 51.9516C60.9856 50.9702 50.0762 54.0377 49.5542 59.7736L45.2272 61.2543L46.1993 61.7455L49.9664 60.4532C55.0147 63.1876 56.6675 63.3678 59.5898 61.7552C62.8989 59.425 66.5716 55.6001 68.8047 51.9516ZM64.7158 54.0169C67.3664 53.0323 64.8533 53.6991 64.8533 53.6991C62.5707 54.7405 60.418 56.2129 58.6008 57.086C56.288 58.4995 55.3914 58.4986 52.0159 59.7785C49.798 60.3681 51.551 59.9014 52.7205 59.3599C54.098 58.7221 55.4727 58.4428 57.2498 57.6624C59.9213 56.6294 63.5189 54.4615 64.7158 54.0169Z" fill="#56614D" fill-opacity="0.74"/>
</g>
<g clip-path="url(#clip7_163_94)">
<path d="M68.4277 64.7443C57.4887 63.0028 42.4522 66.3438 42.0173 73.7733L36.0668 75.4418L37.4457 76.1385L42.6259 74.6817C49.7957 78.5384 52.1065 78.8712 56.0942 76.9475C60.5838 74.1134 65.5036 69.357 68.4277 64.7443ZM62.8386 67.1874C66.4797 66.0644 63.0139 66.7822 63.0139 66.7822C59.8881 68.001 56.9652 69.788 54.4789 70.8156C51.3301 72.5165 50.0815 72.462 45.4458 73.9261C42.3871 74.561 44.8047 74.0582 46.4057 73.4235C48.2916 72.6758 50.1918 72.3943 52.6269 71.4849C56.2948 70.3003 61.1944 67.6945 62.8386 67.1874Z" fill="#56614D" fill-opacity="0.74"/>
</g>
<g clip-path="url(#clip8_163_94)">
<path d="M62.502 81.2833C52.2448 76.8585 37.3527 76.5505 35.9081 83.9245L29.9669 84.1514L31.1938 85.1896L36.3666 84.9877C42.714 90.6217 44.8856 91.5211 48.9784 90.558C53.6788 88.801 59.058 85.2134 62.502 81.2833ZM56.8004 82.3782C60.45 82.1367 57.0247 82.013 57.0247 82.013C53.8564 82.4768 50.8043 83.5623 48.2762 83.9898C45.0191 84.9334 43.8284 84.5736 39.1773 84.9156C36.1541 84.8079 38.5437 84.8921 40.1679 84.644C42.0811 84.3518 43.9437 84.5324 46.4063 84.2114C50.09 83.9144 55.1524 82.4872 56.8004 82.3782Z" fill="#56614D" fill-opacity="0.74"/>
</g>
<g clip-path="url(#clip9_163_94)">
<path d="M8.83203 64.0303C17.9822 68.2821 27.8425 78.4076 24.6533 84.1744L28.3912 88.44L27.0118 88.2603L23.7597 84.5436C16.4759 83.7838 14.5596 82.8594 12.4363 79.3996C10.3624 75.0054 8.87184 68.9577 8.83203 64.0303ZM11.928 68.6907C9.68907 66.0044 11.9866 68.2992 11.9866 68.2992C13.7879 70.7955 15.1657 73.613 16.5709 75.6419C18.1614 78.5097 19.1375 79.1028 21.9717 82.5484C23.9986 84.5747 22.397 82.9724 21.4793 81.686C20.3983 80.1708 19.0855 78.9962 17.6632 77.0815C15.4332 74.3356 12.939 69.9037 11.928 68.6907Z" fill="#56614D" fill-opacity="0.74"/>
</g>
<g clip-path="url(#clip10_163_94)">
<path d="M50.832 95.1679C42.6336 88.6628 30.0879 84.8954 28.093 91.4027L23.0511 90.2244L23.9783 91.4749L28.3685 92.4968C33.1376 99.2105 34.8773 100.553 38.4354 100.616C42.59 100.084 47.5103 98.011 50.832 95.1679ZM45.9014 94.8514C49.0092 95.4804 46.1292 94.5649 46.1292 94.5649C43.4045 94.2547 40.7125 94.5488 38.5324 94.3546C35.6823 94.4691 34.7144 93.8567 30.75 93.0869C28.2079 92.2802 30.2174 92.917 31.6153 93.0664C33.2619 93.2424 34.816 93.8455 36.9298 94.1232C40.0723 94.7086 44.498 94.5674 45.9014 94.8514Z" fill="#56614D" fill-opacity="0.74"/>
</g>
<path d="M17.0879 95.1179C34.8977 83.7651 43.023 71.116 55.4158 38.9567" stroke="#56614D" stroke-opacity="0.99"/>
<defs>
<clipPath id="clip0_163_94">
<rect width="19.9611" height="27.4219" fill="white" transform="matrix(-0.989257 0.146189 0.0670239 0.997751 71.6484 11.2122)"/>
</clipPath>
<clipPath id="clip1_163_94">
<rect width="20.1588" height="21.6328" fill="white" transform="matrix(-0.929067 -0.369911 -0.332766 0.943009 74.6484 37.5871)"/>
</clipPath>
<clipPath id="clip2_163_94">
<rect width="15.3225" height="26.6187" fill="white" transform="matrix(0.999202 0.0399554 -0.0795594 0.99683 42.0723 17.203)"/>
</clipPath>
<clipPath id="clip3_163_94">
<rect width="19.1345" height="29.4305" fill="white" transform="matrix(0.999202 0.0399554 -0.0795594 0.99683 33.5742 27.4581)"/>
</clipPath>
<clipPath id="clip4_163_94">
<rect width="15.6555" height="24.0795" fill="white" transform="matrix(0.999202 0.0399554 -0.0795594 0.99683 31.2695 43.8547)"/>
</clipPath>
<clipPath id="clip5_163_94">
<rect width="21.3684" height="27.5838" fill="white" transform="matrix(0.999202 0.0399554 -0.0795594 0.99683 18.4316 51.7609)"/>
</clipPath>
<clipPath id="clip6_163_94">
<rect width="18.7674" height="20.5473" fill="white" transform="matrix(-0.892534 -0.45098 -0.397151 0.917753 68.9727 51.2617)"/>
</clipPath>
<clipPath id="clip7_163_94">
<rect width="26.619" height="26.1964" fill="white" transform="matrix(-0.892534 -0.45098 -0.397151 0.917753 68.627 63.8569)"/>
</clipPath>
<clipPath id="clip8_163_94">
<rect width="27.6932" height="25.4267" fill="white" transform="matrix(-0.763378 -0.645952 -0.523414 0.852079 62.8145 80.4383)"/>
</clipPath>
<clipPath id="clip9_163_94">
<rect width="23.9697" height="23.4857" fill="white" transform="matrix(0.99162 0.129185 -0.147897 0.989003 9.10156 63.2672)"/>
</clipPath>
<clipPath id="clip10_163_94">
<rect width="26.8238" height="21.7188" fill="white" transform="matrix(-0.595591 -0.803288 -0.622364 0.782728 51.1855 94.4567)"/>
</clipPath>
</defs>
</svg>
