<svg width="39" height="57" viewBox="0 0 39 57" fill="none" xmlns="http://www.w3.org/2000/svg">
<g clip-path="url(#clip0_251_212)">
<path d="M34.0781 5.50049C29.3186 8.51198 24.0115 15.8683 25.4374 20.1943L23.4118 23.2997L24.1145 23.1878L25.877 20.4819C29.5814 20.0312 30.5792 19.3753 31.7632 16.8424C32.9522 13.6158 33.8996 9.15399 34.0781 5.50049ZM32.3642 8.90867C33.5817 6.95121 32.3472 8.61746 32.3472 8.61746C31.3569 10.4408 30.5702 12.5089 29.7951 13.9917C28.8994 16.0939 28.3871 16.5186 26.8445 19.0299C25.7553 20.5013 26.616 19.3378 27.121 18.398C27.7158 17.2911 28.4168 16.4403 29.1969 15.0424C30.4119 13.0406 31.8144 9.79256 32.3642 8.90867Z" fill="#56614D" fill-opacity="0.74"/>
</g>
<g clip-path="url(#clip1_251_212)">
<path d="M35.6113 22.0469C30.4102 21.8461 23.3612 24.4959 23.2857 28.3137L20.5022 29.5391L21.1662 29.8079L23.5893 28.7389C27.0457 30.2559 28.1438 30.2804 29.995 29.0483C32.0676 27.3201 34.3099 24.5841 35.6113 22.0469ZM33.0122 23.6447C34.7136 22.8428 33.088 23.4269 33.088 23.4269C31.6318 24.2453 30.2815 25.3408 29.1243 26.0213C27.6656 27.0871 27.0745 27.1378 24.9089 28.1762C23.4743 28.6924 24.6082 28.2839 25.3539 27.8594C26.2322 27.3594 27.1255 27.0963 28.2606 26.4793C29.9735 25.6443 32.2439 24.0068 33.0122 23.6447Z" fill="#56614D" fill-opacity="0.74"/>
</g>
<g clip-path="url(#clip2_251_212)">
<path d="M14.4922 10.6667C18.0961 12.9638 21.9701 19.3772 20.7014 23.7256L22.1693 26.4603L21.6252 26.4416L20.3481 24.0585C17.4747 24.0945 16.72 23.5893 15.888 21.2994C15.0771 18.3419 14.4994 14.1638 14.4922 10.6667ZM15.706 13.7326C14.827 12.0013 15.7298 13.4499 15.7298 13.4499C16.4364 15.0807 16.9753 16.9732 17.5263 18.3034C18.1491 20.2149 18.5333 20.559 19.6459 22.7825C20.4423 24.0618 19.813 23.0501 19.4531 22.2089C19.029 21.218 18.513 20.4874 17.955 19.2397C17.0796 17.4654 16.1029 14.5143 15.706 13.7326Z" fill="#56614D" fill-opacity="0.74"/>
</g>
<g clip-path="url(#clip3_251_212)">
<path d="M9.21484 18.4941C13.7414 21.0525 18.6546 28.1648 17.1231 32.9682L18.9884 36L18.3089 35.9768L16.686 33.3347C13.0994 33.3604 12.1512 32.798 11.0851 30.2612C10.0372 26.9861 9.26579 22.3621 9.21484 18.4941ZM10.7669 21.891C9.64886 19.9719 10.7932 21.5784 10.7932 21.5784C11.6949 23.3857 12.3904 25.4815 13.0943 26.9554C13.8947 29.0727 14.3784 29.4551 15.7941 31.92C16.8037 33.3387 16.0059 32.2168 15.5465 31.2845C15.0052 30.1865 14.3522 29.3759 13.6406 27.9931C12.5265 26.0264 11.2718 22.7576 10.7669 21.891Z" fill="#56614D" fill-opacity="0.74"/>
</g>
<g clip-path="url(#clip4_251_212)">
<path d="M5.31836 28.7659C9.02194 30.859 13.0418 36.6782 11.7887 40.6083L13.3149 43.0889L12.7589 43.0698L11.4311 40.9081C8.49664 40.9292 7.72083 40.469 6.84855 38.3935C5.99124 35.7138 5.36004 31.9305 5.31836 28.7659ZM6.58826 31.5451C5.67346 29.9749 6.60977 31.2894 6.60977 31.2894C7.34753 32.768 7.91652 34.4828 8.49247 35.6887C9.14731 37.421 9.54312 37.734 10.7014 39.7506C11.5274 40.9114 10.8747 39.9935 10.4988 39.2307C10.056 38.3323 9.52167 37.6691 8.93944 36.5378C8.02791 34.9286 7.00134 32.2541 6.58826 31.5451Z" fill="#56614D" fill-opacity="0.74"/>
</g>
<g clip-path="url(#clip5_251_212)">
<path d="M32.0391 31.9355C27.2538 31.349 20.5582 33.334 20.2138 36.9603L17.5571 37.9144L18.1504 38.2206L20.4634 37.3879C23.544 39.0939 24.5556 39.2007 26.3525 38.1693C28.3895 36.6828 30.6555 34.2503 32.0391 31.9355ZM29.5256 33.258C31.1534 32.6245 29.6112 33.0566 29.6112 33.0566C28.2085 33.7244 26.8836 34.6639 25.7667 35.2234C24.344 36.1264 23.7948 36.1297 21.7217 36.9529C20.3606 37.3349 21.4364 37.0325 22.1551 36.6853C23.0016 36.2764 23.8449 36.0941 24.9368 35.5934C26.5776 34.9293 28.7906 33.544 29.5256 33.258Z" fill="#56614D" fill-opacity="0.74"/>
</g>
<g clip-path="url(#clip6_251_212)">
<path d="M30.8027 41.136C24.2589 39.3796 14.8773 40.5715 14.1115 45.217L10.3755 45.9065L11.1682 46.428L14.4209 45.825C18.5268 48.6837 19.9116 49.0327 22.4695 48.0641C25.3945 46.5534 28.7111 43.8598 30.8027 41.136ZM27.2345 42.3344C29.5275 41.8483 27.3686 42.0902 27.3686 42.0902C25.383 42.6676 23.4826 43.6147 21.8994 44.1105C19.8672 44.9898 19.1105 44.88 16.189 45.5204C14.2836 45.7347 15.7897 45.5647 16.8074 45.2624C18.0062 44.9062 19.1823 44.8441 20.7265 44.4195C23.0398 43.8963 26.1992 42.5539 27.2345 42.3344Z" fill="#56614D" fill-opacity="0.74"/>
</g>
<path d="M8.82617 47.3042C15.9962 42.0329 19.1352 36.441 23.6953 22.4223" stroke="#56614D" stroke-opacity="0.99"/>
<defs>
<clipPath id="clip0_251_212">
<rect width="12.2607" height="17.3083" fill="white" transform="matrix(-0.987552 0.157292 0.0582564 0.998302 33.9668 4.93042)"/>
</clipPath>
<clipPath id="clip1_251_212">
<rect width="12.3419" height="13.6803" fill="white" transform="matrix(-0.926931 -0.375231 -0.328723 0.944427 35.6895 21.5818)"/>
</clipPath>
<clipPath id="clip2_251_212">
<rect width="9.38093" height="16.8333" fill="white" transform="matrix(0.999414 0.0342265 -0.0838298 0.99648 14.5996 10.1033)"/>
</clipPath>
<clipPath id="clip3_251_212">
<rect width="11.7148" height="18.6115" fill="white" transform="matrix(0.999414 0.0342265 -0.0838298 0.99648 9.3418 17.8716)"/>
</clipPath>
<clipPath id="clip4_251_212">
<rect width="9.58481" height="15.2276" fill="white" transform="matrix(0.999414 0.0342265 -0.0838298 0.99648 5.42188 28.2566)"/>
</clipPath>
<clipPath id="clip5_251_212">
<rect width="11.5049" height="12.9843" fill="white" transform="matrix(-0.888664 -0.458558 -0.391202 0.920305 32.1445 31.499)"/>
</clipPath>
<clipPath id="clip6_251_212">
<rect width="16.3486" height="16.53" fill="white" transform="matrix(-0.83543 -0.549597 -0.481331 0.876539 30.9824 40.5901)"/>
</clipPath>
</defs>
</svg>
